# xmcd
#
# Track frame offsets: 
#        150
#        12570
#        24590
#        36850
#        50740
#        59795
#        72445
#        82847
#        91382
#        100532
#        111435
#        122460
#        135102
#        146727
#        158442
#        171580
#        184307
#        198107
#        209675
#        223895
#        239025
#        253642
#        266147
#        279535
#
# Disc length: 3889 seconds
#
# Revision: 3
# Processed by: cddbd v1.5.2PL0 Copyright (c) Steve Scherf et al.
# Submitted via: ExactAudioCopyFreeDBPlugin 1.0
#
DISCID=700f2f18
DTITLE=Various Artist - A portrait of gospel, disc 2
DYEAR=1998
DGENRE=Gospel
TTITLE0=Heavenly Gospel Singers - My Lord is writing all the time
TTITLE1=Josh White - King Jesus knows I´m coming
TTITLE2=Charioteers - Ezekiel saw the wheel
TTITLE3=Southern Sons - One day when Lord will call me
TTITLE4=Golden Gate Quartet - To the rock
TTITLE5=Golden Gate Quartet - Massa´s in the cold gold ground
TTITLE6=Golden Gate Quartet - John the Revelator
TTITLE7=Golden Gate Quartet - Travellin´ shoes
TTITLE8=Golden Gate Quartet - Rock my soul
TTITLE9=Golden Gate Quartet - Jonah in the whale
TTITLE10=Golden Gate Quartet - Didn´t it rain
TTITLE11=Sister Rosetta Tharpe - Just a closer walk with thee
TTITLE12=Sister Rosetta Tharpe - The lonesome road
TTITLE13=Sister Rosetta Tharpe - Rock me
TTITLE14=Sister Rosetta Tharpe - Rock Daniel
TTITLE15=Sister Rosetta Tharpe - God gon´t like it
TTITLE16=Sister Rosetta Tharpe - Precious Lord, hold my hand
TTITLE17=Louis Armstrong - Shadrack
TTITLE18=Louis Armstrong - Nobody knows the trouble I´ve seen
TTITLE19=Louis Armstrong - Lawd, you made the night too long
TTITLE20=Louis Armstrong - I hope Gabriel likes my music
TTITLE21=Louis Armstrong - Going to shout all over God´s heaven
TTITLE22=Louis Armstrong - Cain and Abel
TTITLE23=Portrait of Gospel - When the saints go marching in
EXTD=YEAR: 1998 ID3G:  38
EXTT0=
EXTT1=
EXTT2=
EXTT3=
EXTT4=
EXTT5=
EXTT6=
EXTT7=
EXTT8=
EXTT9=
EXTT10=
EXTT11=
EXTT12=
EXTT13=
EXTT14=
EXTT15=
EXTT16=
EXTT17=
EXTT18=
EXTT19=
EXTT20=
EXTT21=
EXTT22=
EXTT23=
PLAYORDER=
